<svg id="Layer_1" data-name="Layer 1" xmlns="http://www.w3.org/2000/svg" xmlns:xlink="http://www.w3.org/1999/xlink" viewBox="0 0 53.43 50"><defs><style>.cls-1{fill:none;}.cls-2{clip-path:url(#clip-path);}.cls-3{fill:#231f20;}</style><clipPath id="clip-path" transform="translate(-23.72 -25.36)"><rect class="cls-1" x="23.72" y="25.36" width="53.43" height="50"/></clipPath></defs><title>react</title><g class="cls-2"><path class="cls-3" d="M55.31,50.34a4.89,4.89,0,1,1-4.88-5.12,5,5,0,0,1,4.88,5.12" transform="translate(-23.72 -25.36)"/><path class="cls-3" d="M36.68,63.32c.16-.94.37-1.93.58-3a64.89,64.89,0,0,0,7,1.15,51.08,51.08,0,0,0,4.46,5.78c-3.15,3.24-6.35,5.5-8.92,5.5a2.89,2.89,0,0,1-1.52-.38C36.52,71.35,36,68,36.68,63.32Zm-1.1-6c-5.88-1.76-9.4-4.46-9.4-6.93,0-2.15,2.41-4.29,6.67-6,.84-.33,1.78-.66,2.72-.93a61.7,61.7,0,0,0,2.58,6.93,54,54,0,0,0-2.58,6.93Zm2.73-29a2.69,2.69,0,0,1,1.52-.39c2.57,0,5.77,2.2,8.92,5.5a57.61,57.61,0,0,0-4.46,5.78,46.17,46.17,0,0,0-7,1.16,27.94,27.94,0,0,1-.57-3c-.74-4.67-.16-8,1.62-9.07ZM53.37,39c-.94-.05-1.94-.05-2.94-.05s-2,0-2.94.05c.95-1.32,1.95-2.53,2.94-3.68,1,1.15,2,2.42,2.94,3.68m7.72-11.06a2.83,2.83,0,0,1,1.52.39c1.73,1,2.36,4.35,1.63,9.07-.16.94-.37,1.93-.58,3a65.44,65.44,0,0,0-7-1.16,50.82,50.82,0,0,0-4.46-5.78c3.15-3.24,6.35-5.5,8.92-5.5Zm4.2,15.52c5.88,1.76,9.39,4.45,9.39,6.93,0,2.14-2.41,4.29-6.66,6-.84.33-1.79.67-2.73.94a58.37,58.37,0,0,0-2.57-6.93,51.75,51.75,0,0,0,2.57-6.93Zm-2.73,29a2.81,2.81,0,0,1-1.53.38c-2.57,0-5.77-2.2-8.92-5.5a56.49,56.49,0,0,0,4.46-5.78,46.19,46.19,0,0,0,7-1.15c.26,1,.42,2,.58,3,.73,4.67.15,8-1.63,9.08ZM61.35,53.31C62,54.85,62.5,56.39,63,57.87c-1.47.33-3,.61-4.62.83.52-.88,1-1.76,1.57-2.7s1-1.75,1.42-2.69Zm0-5.94-1.42-2.75c-.52-.94-1-1.82-1.57-2.7,1.62.22,3.15.5,4.62.83-.48,1.54-1,3.08-1.63,4.62Zm-20.53,3c.69-1.49,1.42-3,2.26-4.46s1.68-2.86,2.57-4.29c1.58-.11,3.15-.16,4.78-.16s3.26,0,4.78.16c.94,1.43,1.78,2.86,2.57,4.29s1.58,3,2.26,4.46c-.68,1.48-1.42,3-2.26,4.45s-1.68,2.86-2.57,4.29c-1.58.11-3.15.17-4.78.17s-3.25-.06-4.78-.17c-.94-1.43-1.78-2.86-2.57-4.29s-1.57-3-2.26-4.45M37.94,42.8c1.47-.33,3-.6,4.62-.83-.53.89-1.05,1.76-1.58,2.7a28.61,28.61,0,0,0-1.41,2.75,37.27,37.27,0,0,1-1.63-4.62Zm3,13.26c.53.93,1,1.81,1.58,2.69-1.63-.22-3.15-.49-4.62-.82.47-1.49,1-3,1.63-4.57.42.88.89,1.82,1.41,2.7Zm6.51,5.66c.95.06,1.94.06,2.94.06s2,0,2.94-.06c-.95,1.32-1.94,2.53-2.94,3.69-1-1.16-2-2.37-2.94-3.69m2.94,7.43c3.83,3.91,7.61,6.21,10.66,6.21a5.13,5.13,0,0,0,2.73-.71C66.54,73,67.54,68.87,66.6,63c-.16-1.05-.37-2.09-.63-3.19,1-.33,2-.66,2.94-1,5.3-2.15,8.24-5.12,8.24-8.36s-2.94-6.28-8.24-8.36a22.54,22.54,0,0,0-2.94-1c.26-1.1.47-2.15.63-3.2.89-6-.11-10.17-2.84-11.82A5,5,0,0,0,61,25.36c-3,0-6.82,2.31-10.65,6.22-3.78-3.91-7.56-6.22-10.6-6.22a5,5,0,0,0-2.73.72c-2.73,1.65-3.73,5.77-2.78,11.66.15,1,.36,2.09.63,3.19-1,.33-2,.66-2.94,1-5.3,2.15-8.24,5.12-8.24,8.36s2.94,6.27,8.24,8.36a21.58,21.58,0,0,0,2.94,1c-.27,1.1-.48,2.15-.63,3.19-.9,5.89.1,10.07,2.78,11.66a5,5,0,0,0,2.73.72c3,.11,6.82-2.2,10.65-6" transform="translate(-23.72 -25.36)"/></g></svg>