<svg id="Layer_1" data-name="Layer 1" xmlns="http://www.w3.org/2000/svg" viewBox="0 0 512 486.85"><defs><style>.cls-1{fill:#030303;}.cls-2{fill:#060606;}.cls-3{fill:#080808;}</style></defs><title>empty-box</title><path class="cls-1" d="M742.54,557.77v-7c19.32-18.72,38.65-37.43,58.23-56.39-7.64-7.53-14-13.66-20.18-19.92q-19.08-19.29-38.05-38.69v-7c3.17-2.54,6.05-5.61,9.56-7.55q88.62-48.86,177.37-97.46c8.2-4.5,11-4.12,17.57,2.43q23.87,23.83,47.72,47.7c1.24,1.24,2.52,2.42,3.89,3.72,17.52-17.53,34.59-34.63,51.68-51.7,6.13-6.13,9.15-6.55,16.73-2.41q24.06,13.15,48.09,26.35a25,25,0,0,1,4.14,2.75,9.9,9.9,0,0,1,2.42,12.17,9.73,9.73,0,0,1-11.47,4.73,26.5,26.5,0,0,1-5-2.27c-13.56-7.42-27.06-14.93-40.68-22.24-1.26-.68-3.85-.92-4.63-.16-15,14.69-29.73,29.56-44.84,44.69l165.25,90.76,46.3-46.31-4.14-2.3-46.29-25.47c-4.08-2.24-6.93-5.44-6.48-10.33.37-4.08,2.61-7.75,6.71-8.32a18,18,0,0,1,10.32,1.78q29.91,15.94,59.42,32.63c3.22,1.82,5.57,5.17,8.33,7.81v6c-3.15,3.37-6.2,6.83-9.45,10.09-15.74,15.77-31.54,31.5-48.14,48.06a41.47,41.47,0,0,1,4.57,3.41q23.18,23.07,46.22,46.25c2.49,2.51,4.54,5.45,6.8,8.19v6c-3.13,2.59-6,5.71-9.43,7.68-15.92,9-32,17.72-48.08,26.37-2.7,1.46-3.61,3.11-3.59,6.18.12,31.82,0,63.65.16,95.47,0,6.26-2.33,10.25-7.77,13.23q-90.07,49.29-180,98.83c-5,2.78-9.48,2.78-14.52,0q-90-49.53-180-98.83c-5.44-3-7.8-7-7.77-13.23.18-31.82,0-63.65.16-95.47,0-3.07-.89-4.72-3.59-6.18-16.1-8.65-32.16-17.38-48.07-26.37C748.49,563.48,745.67,560.36,742.54,557.77Zm256,51.24c-17.51,17.53-34.45,34.51-51.41,51.48-6.5,6.51-9.57,6.94-17.59,2.53l-101-55.38c-1.48-.81-3-1.53-5-2.52,0,28.08.07,55.24-.1,82.4,0,3.08,1.7,3.94,3.73,5.05l157.36,86.32c1.18.65,2.43,1.19,4,1.94V738.66c0-19.16,0-38.33,0-57.49,0-5.07,1.35-9.3,6.33-11.39,7-3,13.64,2.18,13.68,10.76.08,22.33,0,44.66,0,67v33.4c1.18-.56,1.89-.86,2.56-1.23q79.76-43.8,159.53-87.53c2.58-1.41,2.91-3,2.91-5.52-.07-20.17,0-40.33,0-60.49v-21c-2,1-3.46,1.66-4.86,2.43q-50.7,27.79-101.41,55.61c-7.51,4.12-10.85,3.69-16.83-2.26q-12.93-12.87-25.81-25.81Zm-163.8-115.8a16.65,16.65,0,0,0,1.7,1.31q79.52,43.66,159.13,87.17c1.69.93,4.85.68,6.63-.3q78.33-42.74,156.48-85.78c1.2-.65,2.3-1.48,3.71-2.4-54-29.66-107.61-59.1-161.28-88.39-1.48-.8-4.21-.54-5.79.3-13.92,7.43-27.71,15.11-41.55,22.71Zm100.2,150,46.33-46.34-164.68-90.4-46.66,46.15Zm127.18,0,165.22-90.75-46.25-46.35-165.3,90.76ZM815.7,480.84,982,389.51c-14.52-14.54-28.81-28.72-42.91-43.07-2.5-2.55-4.22-2.93-7.51-1.12q-79.14,43.74-158.46,87.17c-1.24.68-2.41,1.48-3.54,2.18Z" transform="translate(-742.54 -320.77)"/><path class="cls-2" d="M1157.33,378.74a10.2,10.2,0,0,1-9.66,10.07,9.87,9.87,0,0,1-10.18-9.43,10.11,10.11,0,0,1,9.78-10.42A10.46,10.46,0,0,1,1157.33,378.74Z" transform="translate(-742.54 -320.77)"/><path class="cls-3" d="M998.46,655.67a10.4,10.4,0,0,1-9.87-9.93,10,10,0,1,1,19.9.16A10.38,10.38,0,0,1,998.46,655.67Z" transform="translate(-742.54 -320.77)"/></svg>