<?xml version="1.0" encoding="utf-8"?>
<!-- Generator: Adobe Illustrator 25.2.1, SVG Export Plug-In . SVG Version: 6.00 Build 0)  -->
<svg version="1.1" id="Laag_1" xmlns="http://www.w3.org/2000/svg" xmlns:xlink="http://www.w3.org/1999/xlink" x="0px" y="0px"
	 viewBox="0 0 50 40.5" style="enable-background:new 0 0 50 40.5;" xml:space="preserve">
<style type="text/css">
	.st0{fill:#FFFFFF;}
	.st1{fill:#E8434F;}
</style>
<g>
	<g>
		<path class="st0" d="M16.8,2.2C15.8,1,13.7,0,12.2,0L1.4,0c-1.5,0-1.9,1-0.8,2.2l14.1,15.7l8.1-9L16.8,2.2z"/>
		<path class="st0" d="M33.2,38.4c1.1,1.2,3.2,2.2,4.7,2.1l10.8,0c1.5,0,1.9-1,0.8-2.2L35.3,22.7l-8.1,9L33.2,38.4z"/>
	</g>
	<path class="st1" d="M33.2,2.1C34.2,1,36.3,0,37.8,0l10.8,0c1.5,0,1.9,1,0.8,2.2L16.8,38.4c-1.1,1.2-3.2,2.2-4.7,2.1l-10.8,0
		c-1.5,0-1.9-1-0.8-2.2L33.2,2.1z"/>
</g>
</svg>
