<svg id="Layer_1" data-name="Layer 1" xmlns="http://www.w3.org/2000/svg" xmlns:xlink="http://www.w3.org/1999/xlink" viewBox="0 0 483 135"><defs><style>.cls-1{stroke:#010101;stroke-miterlimit:10;stroke-width:0.18px;fill:url(#Orange_Yellow);}.cls-2{fill:#fff;}</style><linearGradient id="Orange_Yellow" x1="1.64" y1="74.03" x2="149.66" y2="74.03" gradientUnits="userSpaceOnUse"><stop offset="0" stop-color="#ffef26"/><stop offset="0.02" stop-color="#ffea21"/><stop offset="0.1" stop-color="#fed70f"/><stop offset="0.19" stop-color="#fdcc04"/><stop offset="0.28" stop-color="#fdc800"/><stop offset="0.67" stop-color="#f18f34"/><stop offset="0.89" stop-color="#e95f32"/><stop offset="1" stop-color="#e3312d"/></linearGradient></defs><title>svglogo2</title><path class="cls-1" d="M142.8,65.87A6.86,6.86,0,0,0,136,72.73v0h-5.2a6.85,6.85,0,0,0-13.68,0h-6.92a3.76,3.76,0,0,0-7.45,0H91a14.91,14.91,0,0,0-.73-4.19l13.61-5a3.77,3.77,0,0,0,7.07-1.83,3.57,3.57,0,0,0-.08-.74l6.71-2.47a3.75,3.75,0,1,0-.47-1.79,3.49,3.49,0,0,0,.11.86l-6.69,2.46a3.77,3.77,0,0,0-7.15,1.68,3.38,3.38,0,0,0,.13.9l-13.58,5A15.06,15.06,0,0,0,87,63.06L95.06,55a6.85,6.85,0,0,0,9.66-9.65L116.63,33.4a9.74,9.74,0,0,0,16.53-6,7.94,7.94,0,0,0,.05-1A9.76,9.76,0,1,0,116,32.67L104,44.6a6.78,6.78,0,0,0-4.52-1.72,6.84,6.84,0,0,0-5.14,11.38l-8.09,8.09a15.64,15.64,0,0,0-3.48-2.43L94.44,34.69a9.53,9.53,0,0,0,3.39.62,9.73,9.73,0,0,0,9.71-8.77c0-.32,0-.65,0-1A9.76,9.76,0,1,0,93.52,34.3L81.87,59.49a14.88,14.88,0,0,0-5.31-1.14V41a6.85,6.85,0,0,0,0-13.63V14.14a3.8,3.8,0,1,0-1,0V27.39a6.85,6.85,0,0,0,0,13.68V58.36a14.66,14.66,0,0,0-4.16.76l-2.24-6.07a3.77,3.77,0,0,0-1.88-7,3.73,3.73,0,0,0-.68.07l-2.26-6.15a6.8,6.8,0,1,0-.94.35l2.25,6.11a3.77,3.77,0,0,0,1.63,7.18,3.43,3.43,0,0,0,1-.14l2.22,6a14.77,14.77,0,0,0-4.53,2.95l-4.7-4.69A3.74,3.74,0,0,0,62,55.5a3.79,3.79,0,0,0-3.78-3.79,3.75,3.75,0,0,0-2.22.74l-3.7-3.7a3.83,3.83,0,0,0,.61-2.06,3.78,3.78,0,0,0-3.78-3.78,3.72,3.72,0,0,0-2.05.62l-7.81-7.82A6.78,6.78,0,0,0,41.1,31a6.84,6.84,0,0,0-11.55-5l0,0-.71.7.05.06a6.84,6.84,0,0,0,9.62,9.61l7.79,7.8A3.76,3.76,0,0,0,51.6,49.5l3.65,3.65a3.71,3.71,0,0,0-.85,2.35,3.76,3.76,0,0,0,6.13,2.94l4.69,4.69a14.82,14.82,0,0,0-2.39,3.46l-19.45-9a10.45,10.45,0,0,0,.48-2.18c0-.32,0-.65,0-1a9.75,9.75,0,1,0-.9,4.1l19.39,9a14.81,14.81,0,0,0-1.12,5.26H39.75a3.76,3.76,0,0,0-7.48,0H15.14a6.77,6.77,0,1,0,0,1H32.29a3.77,3.77,0,0,0,7.44,0H61.29A15.16,15.16,0,0,0,62,77.88L40.47,85.82a9.73,9.73,0,1,0,.36,3.75c0-.32.05-.65.05-1a9.53,9.53,0,0,0-.18-1.79l21.68-8a15,15,0,0,0,2.9,4.51L55.64,93A6.85,6.85,0,0,0,46,102.64l-9.86,9.86a9.75,9.75,0,1,0,3.11,8.16,8.21,8.21,0,0,0,.05-1,9.68,9.68,0,0,0-2.46-6.45l9.88-9.89a6.85,6.85,0,0,0,9.65-9.64L66,84a15,15,0,0,0,3.43,2.4l-1.08,2.33a3.89,3.89,0,0,0-1-.16,3.78,3.78,0,0,0-2.1,6.93l-4.12,8.92a9.75,9.75,0,1,0,6.37,10.14c0-.33.05-.66.05-1a9.76,9.76,0,0,0-5.5-8.76L66.12,96a3.64,3.64,0,0,0,1.19.22,3.77,3.77,0,0,0,2-7l1.06-2.29A14.77,14.77,0,0,0,75.56,88v22.88a3.77,3.77,0,0,0,0,7.53v9.32a6.86,6.86,0,1,0,1,0v-9.38a3.78,3.78,0,0,0,0-7.39V88a15.28,15.28,0,0,0,4.14-.71l9.06,24.6a9.76,9.76,0,1,0,13.5,10c0-.32,0-.65,0-1a9.76,9.76,0,0,0-9.75-9.75,9.92,9.92,0,0,0-2.85.42L81.64,87a14.78,14.78,0,0,0,4.55-2.88l5.29,5.28a3.73,3.73,0,0,0-.5,1.84A3.79,3.79,0,0,0,94.77,95a3.72,3.72,0,0,0,1.83-.5l12.2,12.2a9.75,9.75,0,0,0,13.73,13.73l.07.07.7-.71,0,0a9.68,9.68,0,0,0,2.76-5.87,8.1,8.1,0,0,0,0-1,9.74,9.74,0,0,0-16.6-6.93L97.42,93.91a3.78,3.78,0,1,0-5.34-5.35l-5.17-5.17A14.9,14.9,0,0,0,89.35,80l17.26,8a6.78,6.78,0,0,0-.5,2.55A6.85,6.85,0,0,0,119,93.67l4.15,1.92a3.84,3.84,0,0,0-.07.69,3.81,3.81,0,1,0,.39-1.65l-4.07-1.88A6.84,6.84,0,0,0,107.06,87l-17.28-8A14.85,14.85,0,0,0,91,73.76h11.72a3.76,3.76,0,0,0,7.48,0h6.93a6.86,6.86,0,0,0,13.64,0H136a6.85,6.85,0,1,0,6.76-7.89Z" transform="translate(-1.55 -6.53)"/><path class="cls-2" d="M192.88,119V54H182.22V31h33.59V54H205.15v65Z" transform="translate(-1.55 -6.53)"/><path class="cls-2" d="M213.21,119l15.91-88h12.07l15.91,88H244.41L232.66,45.08h4.78L225.69,119Zm9.46-15.34,3.12-21.37h16.75l3.12,21.37Z" transform="translate(-1.55 -6.53)"/><path class="cls-2" d="M271.35,119H259.07V31h12.28Zm12.16-32.43h-13V62.18h13ZM282.68,31H295v88H282.68Z" transform="translate(-1.55 -6.53)"/><path class="cls-2" d="M296.93,119l15.91-88H324.9l15.92,88H328.13L316.38,45.08h4.78L309.41,119Zm9.46-15.34,3.12-21.37h16.75l3.12,21.37Z" transform="translate(-1.55 -6.53)"/><path class="cls-2" d="M342.79,119V31h10.09l18.51,53.55h-4.68V31h12v88H368.58L350.07,65.45h4.68V119Z" transform="translate(-1.55 -6.53)"/><path class="cls-2" d="M384.6,119V31h12.27v88Z" transform="translate(-1.55 -6.53)"/><path class="cls-2" d="M402.8,119V31h10.09L431.4,84.55h-4.68V31h12v88H428.59L410.08,65.45h4.68V119Z" transform="translate(-1.55 -6.53)"/><path class="cls-2" d="M440.65,119l15.92-88h12.06l15.91,88H471.85L460.1,45.08h4.79L453.14,119Zm9.47-15.34,3.12-21.37H470l3.12,21.37Z" transform="translate(-1.55 -6.53)"/></svg>