<?xml version="1.0" encoding="utf-8"?>
<!-- Generator: Adobe Illustrator 23.0.0, SVG Export Plug-In . SVG Version: 6.00 Build 0)  -->
<svg version="1.1" id="Laag_1" xmlns="http://www.w3.org/2000/svg" xmlns:xlink="http://www.w3.org/1999/xlink" x="0px" y="0px"
	 viewBox="0 0 1171 659" style="enable-background:new 0 0 1171 659;" xml:space="preserve">
<style type="text/css">
	.st0{fill:#D0D2D5;}
	.st1{fill:#EFEFEF;}
	.st2{fill:url(#SVGID_1_);}
	.st3{fill:#5180A1;}
	.st4{fill:#F9A41A;}
	.st5{fill:#F05B46;}
	.st6{fill:#494E8A;}
	.st7{fill:#AEB1D4;}
	.st8{fill:#7276A8;}
	.st9{fill:#6A6EA2;}
	.st10{fill:#575B94;}
	.st11{fill:#61659B;}
	.st12{fill:#8083B2;}
	.st13{fill:#8A8EBA;}
	.st14{fill:#6C70A3;}
	.st15{fill:#9498C2;}
	.st16{fill:#787CAD;}
	.st17{fill:#61649A;}
	.st18{fill:#9C9FC7;}
	.st19{fill:#9396C0;}
	.st20{fill:#898DB9;}
	.st21{fill:#555A93;}
	.st22{fill:#8085B3;}
	.st23{fill:#9EA2C8;}
	.st24{fill:#A5A9CE;}
	.st25{fill:#A6AACE;}
	.st26{fill:#4D528D;}
	.st27{fill:#787CB3;}
	.st28{fill:#FCFCFD;}
	.st29{fill:#020202;}
	.st30{fill:#FFFFFF;}
</style>
<g>
	<path class="st0" d="M1171,639c0,11-9,20-20,20H20c-11,0-20-9-20-20V20C0,9,9,0,20,0h1131c11,0,20,9,20,20V639z"/>
</g>
<g>
	<path class="st1" d="M896.8,559.3"/>
	<path class="st1" d="M896.8,105"/>
</g>
<linearGradient id="SVGID_1_" gradientUnits="userSpaceOnUse" x1="287.9622" y1="750.5463" x2="288.0206" y2="750.5261" gradientTransform="matrix(2500 0 0 -1500 -719712 1126245.75)">
	<stop  offset="0" style="stop-color:#2197BC"/>
	<stop  offset="1" style="stop-color:#4EBFA9"/>
</linearGradient>
<path class="st2" d="M268.4,399c-18.9,0-30.8,9.5-35.5,28.4c7.1-9.5,15.4-13,24.9-10.7c5.4,1.4,9.3,5.3,13.5,9.6
	c7,7.1,15,15.2,32.6,15.2c18.9,0,30.8-9.5,35.5-28.4c-7.1,9.5-15.4,13-24.9,10.7C309.2,422.5,286,399,268.4,399z M232.9,441.6
	c-18.9,0-30.8,9.5-35.5,28.4c7.1-9.5,15.4-13,24.9-10.7c5.4,1.4,9.3,5.3,13.5,9.6c7,7.1,15,15.2,32.6,15.2
	c18.9,0,30.8-9.5,35.5-28.4c-7.1,9.5-15.4,13-24.9,10.7c-5.4-1.4-9.3-5.3-13.5-9.6C258.6,449.7,250.5,441.6,232.9,441.6z"/>
<image style="overflow:visible;" width="555" height="481" xlink:href="Vue.js_Logo_2.svg.png"  transform="matrix(0.1856 0 0 0.1856 768.1031 191.1301)">
</image>
<image style="overflow:visible;" width="2560" height="1566" xlink:href="2560px-Node.js_logo.svg.png"  transform="matrix(0.1065 0 0 0.1065 705.382 343.2429)">
</image>
<image style="overflow:visible;" width="2048" height="1885" xlink:href="gitlab-icon-2048x1885-1o0cwkbx.png"  transform="matrix(6.248466e-02 0 0 6.248466e-02 503.7173 87.6444)">
</image>
<image style="overflow:visible;" width="800" height="600" xlink:href="sass-1-logo.png"  transform="matrix(0.1268 0 0 0.1268 174.1357 197.7341)">
</image>
<g>
	<g>
		<path class="st3" d="M614.4,291.7c0,0,2,2.1,2.3,3.6c0,0,1.4-1.1,0.5-2.8C616.3,290.8,614.4,291.7,614.4,291.7z"/>
		<path class="st3" d="M651,322.2c-1.8-0.9-3.4-1.4-4.7-1.8c-1.7-0.4-3.1-1.7-3.7-3.4c-0.8-2.2-2.2-5.6-4.9-10.9
			c-5.3-10.4-11.1-13.6-14.9-16.3c-2.5-1.8-5.8-2.1-7.8-2.2c-1,0-2-0.4-2.7-1c-2-1.7-6-3.7-7.2-2.9c-1.5,0.9,0,3,2.2,5.7
			c2.2,2.7,2.6,5.7,4.2,9.7c0.7,1.8,1.6,3,2.3,3.6c0.8,0.7,1,1.8,0.6,2.7c-1.5,3.4-1.9,7.8-1.1,11.8c1,4.8,3.2,4.7,3.2,4.7
			c-0.2-6.4,3.1-9.1,3.1-9.1c3,9.3,10,16.2,10,16.2c-5.6-2-9.8-11.2-9.8-11.2s-0.5,0.5-0.9,3.5c-0.4,3-4.1,4.9-6.8-1.8
			c-2.7-6.6,0.8-15,0.8-15c-1.5-0.8-4.8-8.2-4.8-9.3c0-1.1-1.3-3.7-2.8-5.2c-1.5-1.5-4.6-6-1-8.1c3.5-2.1,10.6,3.5,10.6,3.5
			c11.1-0.4,22.6,13.1,24.4,17.9c1.8,4.8,7,14.4,7,14.4c1.5,0.4,2.8,1,4.1,1.7C650.5,320.4,650.8,321.3,651,322.2z"/>
		<path class="st3" d="M653.1,334.5c-0.1,0-0.1-0.1-0.2-0.1c-3.5-1.7-5-5.3-5-5.3c0.9-0.9,2.6-1.4,4.2-1.7c0.1,0.8,0.3,1.6,0.4,2.5
			c-0.6,0.1-1,0.2-1,0.2c0,0.3,0.5,0.9,1.2,1.5C653,332.5,653.1,333.5,653.1,334.5z"/>
	</g>
	<g>
		<path class="st4" d="M551.1,372h-5.4c0,0,0-12.4-1.8-27l-8.5,27H531l-8.6-26.9c0,0-1,7.9-1.1,23.4c-1.9-4.2-3.4-8.6-4.4-13.1
			c0.4-5.7,1-12,1.7-17.1h7l8,25l8.5-25h6.4C548.5,338.2,551.1,360.2,551.1,372z"/>
		<path class="st4" d="M554.1,347.3l5.6-0.1c0,0,6.3,18.8,5.7,21.1c0,0,4-11.2,5.1-21.1h5.5c0,0-2.9,19.9-11.8,30.4
			c-3.3,3.9-7.1,4-10.5,2.5v-3c0,0,4.6,1.6,7-1.8c1.9-2.8,0.1-7.5-1.6-12.6C558.6,361.5,554.1,347.3,554.1,347.3z"/>
	</g>
	<g>
		<path class="st3" d="M579.3,369.5l1.5-2.9c0,0,10,4.5,12.6,0c2.6-4.5,0.1-6.9-5-9.5c-5.1-2.7-10.4-6-8.1-13.3
			c2.3-7.3,14.6-6.8,18.1-3.3l-1.2,2.8c0,0-9.1-3.9-11.6,1.2s4.1,7.5,5.7,8.2s10.1,4.2,9.2,10.5c-0.9,6.3-4.8,10.1-13.7,9.4
			C583.7,371.7,581.9,371.2,579.3,369.5z"/>
		<path class="st3" d="M624.6,369.9c3.8-3.1,5.4-8.5,5.4-14.7c0-9.5-2.7-17.3-13.6-17.3c-9.3,0-13.6,7.7-13.6,17.3
			c0,9.5,3.1,17.3,13.6,17.3c1.5,0,2.9-0.2,4.1-0.5l8.1,4.7l2-3.9L624.6,369.9z M616.4,368.4c-6.1,0-7.9-5.9-7.9-13.1
			c0-7.3,1.7-13.1,7.9-13.1c6.3,0,7.9,5.9,7.9,13.1C624.3,362.5,622.7,368.4,616.4,368.4z"/>
		<path class="st3" d="M647.4,367.9c-0.6,1.4-1.3,2.8-2,4.1h-10.6v-33.7h5.3v29.5L647.4,367.9L647.4,367.9z"/>
	</g>
</g>
<g>
	<path class="st5" d="M403.9,241c0.7,0.9,1.4,1.7,2,2.6c9.7,16.1,19.3,32.1,28.9,48.2c0.9,1.6,1.7,1.8,3.4,1.3
		c10.7-3,21.5-5.9,32.3-8.8c0.4-0.1,0.8-0.3,1.4-0.5c-3.7-5.2-7.3-10.4-10.9-15.5c-0.3-0.4-0.6-0.8-0.9-1.3c-0.8-1.4-0.4-2.6,1.2-3
		c5.4-1.3,10.9-2.7,16.4-3.8c0.8-0.2,2.1,0.6,2.7,1.3c4.4,5.3,8.7,10.8,13,16.2c0.4,0.5,0.9,0.9,1.3,1.3c0,0.7,0,1.3,0,2
		c-0.9,0.4-1.7,0.9-2.6,1.2c-4.6,1.3-9.1,2.5-13.9,3.8c0.5,0.8,0.8,1.4,1.2,1.9c3.8,5.4,7.6,10.8,11.5,16.2c1.5,2.1,1.2,3.1-1.2,3.9
		c-12.8,4.5-25.7,9-38.5,13.5c-1.7,0.6-2.7,0.2-3.6-1.3c-4.4-7.4-8.8-14.7-13.3-22.3c-3.3,0.9-6.6,1.8-9.9,2.7
		c-5,1.4-10.1,2.7-15.1,4.1c-1.7,0.5-2.7,0-3.5-1.6c-9.7-18.4-19.5-36.7-29.2-55.1c-1.3-2.5-0.9-3.4,2-3.8c7.3-1,14.5-2,21.8-3
		c0.4-0.1,0.8-0.3,1.2-0.4C402.3,241,403.1,241,403.9,241z M380.8,247.9c0.1,0.4,0.1,0.6,0.2,0.8c9.1,17.1,18.2,34.3,27.3,51.4
		c0.2,0.4,1.3,0.8,1.8,0.7c2.3-0.5,4.6-1.2,6.9-1.8c5-1.4,10-2.7,14.9-4.1c0-0.3,0.1-0.3,0-0.4c-9.7-16.2-19.4-32.4-29.1-48.6
		c-0.3-0.4-1.1-0.8-1.6-0.8C394.5,246,387.7,246.9,380.8,247.9z M437.9,297.1c4.2,7.1,8.4,14,12.5,20.9c12.2-4.3,24.3-8.5,36.5-12.8
		c-4.1-5.8-8.1-11.5-12.2-17.1c-0.3-0.5-1.5-0.6-2.2-0.4c-6.9,1.8-13.9,3.8-20.8,5.7C447.2,294.5,442.7,295.8,437.9,297.1z
		 M489.7,279.1c-3-3.8-6.1-7.1-8.5-10.8c-2.4-3.7-5-4.7-9-3.1c-2.3,0.9-4.9,1.3-7.6,1.9c3.7,5.2,7.1,10.1,10.6,14.9
		c0.3,0.4,1,0.7,1.4,0.6C480.9,281.6,485.1,280.4,489.7,279.1z"/>
</g>
<g>
	<path class="st6" d="M1034,202.5c1,0.4,2.1,0.8,3.1,1.2c4.3,1.7,8.4,3.8,12.3,6.3c3.8,2.4,7.4,5.2,10.4,8.6c2.6,3,4.8,6.2,6.1,10
		c2,5.8,1.6,11.5-1,17c-1.6,3.3-3.7,6.2-6.3,8.8c-3.6,3.6-7.7,6.5-12.1,9c-5.1,2.9-10.4,5.1-15.9,6.9c-4.5,1.5-9.1,2.6-13.8,3.5
		c-3.2,0.6-6.5,1.1-9.8,1.5c-3.5,0.4-7,0.7-10.5,0.8c-2.6,0.1-5.2,0.1-7.8,0.1c-0.2,0-0.3,0-0.5,0c0.1-0.1,0.1-0.2,0.2-0.2
		c1.7-0.8,3.3-1.6,5-2.4c0.2-0.1,0.4-0.3,0.6-0.4c1,0,1.9-0.1,2.9-0.1c1.1-0.1,2.1-0.1,3.2-0.2c1.5-0.1,3-0.2,4.5-0.4
		c1.2-0.1,2.4-0.2,3.6-0.4c1.6-0.2,3.2-0.4,4.8-0.7c2.9-0.5,5.8-1.1,8.6-1.7c4-0.9,7.9-2.1,11.8-3.5c3.9-1.4,7.7-3.1,11.3-5.1
		c2.6-1.4,5.1-3,7.4-4.8c2.1-1.6,4-3.4,5.8-5.4c1.8-2.1,3.3-4.3,4.4-6.8c1-2.3,1.6-4.8,1.8-7.3c0.1-1.5,0-3-0.3-4.5
		c-0.4-2.1-1.1-4.1-2.1-6c-1.3-2.5-3-4.7-4.9-6.8c-0.9-0.9-1.8-1.8-2.8-2.7c-1.5-1.2-3-2.4-4.6-3.5c-1.6-1.1-3.2-2.1-4.9-3
		c-1.7-0.9-3.4-1.7-5.1-2.5c-1.7-0.8-3.5-1.5-5.2-2.2c-0.1-0.8-0.1-1.7-0.2-2.5C1034,202.8,1034,202.6,1034,202.5z"/>
	<path class="st7" d="M927.3,212.4c0.5-0.4,1-0.7,1.5-1.1c2.6-1.8,5.4-3.4,8.3-4.8c1.9-0.9,3.9-1.8,5.9-2.6c2.4-1,4.8-1.8,7.2-2.6
		c3.4-1.1,6.8-2,10.2-2.7c2.3-0.5,4.6-0.9,6.9-1.3c1.3-0.2,2.7-0.4,4-0.6c1.6-0.2,3.3-0.4,4.9-0.6c1-0.1,1.9-0.2,2.9-0.2
		c1.4-0.1,2.8-0.2,4.2-0.2c1.1-0.1,2.2-0.1,3.3-0.1c0.6,0,1.3,0,1.9,0c0.2,0.4,0.3,0.8,0.5,1.2c0.2,0.6,0.5,1.2,0.7,1.8
		c-1.3,0-2.5,0-3.8,0.1c-1,0-2,0.1-3.1,0.1c-1.4,0.1-2.7,0.2-4.1,0.3c-1,0.1-2.1,0.1-3.1,0.3c-1.3,0.1-2.7,0.3-4,0.5
		c-1.7,0.2-3.3,0.4-5,0.7c-2.7,0.5-5.5,1-8.2,1.7c-4.1,0.9-8.2,2.2-12.1,3.7c-2.7,1-5.3,2.1-7.9,3.4c-1.7,0.9-3.4,1.8-5.1,2.8
		c-1.9,1.1-3.7,2.4-5.5,3.7c-0.1-0.1-0.2-0.2-0.2-0.3c-0.1-0.4-0.1-0.9-0.2-1.3C927.5,213.3,927.4,212.8,927.3,212.4z"/>
	<path class="st8" d="M933.2,263.1c-1.4-0.9-2.8-1.7-4.2-2.6c-3-2-5.7-4.3-8.1-6.9c-2.3-2.4-4.2-5.1-5.6-8.2
		c-0.8-1.8-1.4-3.7-1.8-5.6c0-0.1,0-0.1,0-0.2c0.1,0,0.2,0.1,0.2,0.1c0.2,0.2,0.3,0.4,0.4,0.6c0.7,1,1.5,2,2.2,3
		c0.5,0.7,1.1,1.4,1.7,2c0.2,0.3,0.5,0.5,0.8,0.8c0.2,0.3,0.4,0.5,0.6,0.8c0.3,0.4,0.6,0.8,0.8,1.3c1,1.4,2.1,2.8,3.3,4
		c1,1,2.1,2,3.1,2.9c0.9,0.8,1.9,1.5,2.9,2.3c0.6,0.5,1.3,0.9,2,1.3c1.2,0.7,2.3,1.5,3.5,2.2c1.4,0.8,2.8,1.5,4.3,2.2
		c1.3,0.6,2.7,1.2,4,1.8c1.3,0.5,2.5,1,3.8,1.5c1.5,0.5,3,1,4.6,1.5c0.9,0.3,1.7,0.5,2.6,0.8c-0.1,0-0.2,0-0.3,0
		c-0.3,0-0.5-0.1-0.8-0.1c-1.1-0.1-2.2-0.2-3.2-0.4c-2.1-0.3-4.2-0.8-6.2-1.3c-2.7-0.7-5.2-1.6-7.8-2.7c-0.9-0.4-1.7-0.8-2.6-1.2
		C933.4,262.9,933.3,262.8,933.2,263.1z"/>
	<path class="st9" d="M933.2,263.1c0-0.3,0.2-0.1,0.3-0.1c0.9,0.4,1.7,0.8,2.6,1.2c2.5,1.1,5.1,2,7.8,2.7c2.1,0.6,4.1,1,6.2,1.3
		c1.1,0.2,2.2,0.3,3.2,0.4c0.3,0,0.5,0.1,0.8,0.1c0.1,0,0.2,0,0.3,0c0.7,0.2,1.4,0.4,2.1,0.6c2.2,0.5,4.5,1,6.7,1.5
		c1.5,0.3,2.9,0.5,4.4,0.8c0.5,0.1,1.1,0.2,1.6,0.3c-0.1,0-0.2,0.1-0.3,0.1c-0.7,0.1-1.4,0.2-2.1,0.3c-1.5,0.2-3,0.3-4.5,0.4
		c-0.9,0.1-1.8,0.1-2.7,0.1c-0.2,0-0.4,0-0.6,0c-0.1,0-0.1,0.1-0.2,0.1c-2.1-0.5-4.1-1-6.2-1.6c-4.4-1.3-8.7-2.8-12.8-4.7
		C937.6,265.4,935.4,264.3,933.2,263.1z"/>
	<path class="st10" d="M994.2,273.2c-0.2,0.1-0.4,0.3-0.6,0.4c-1.7,0.8-3.3,1.6-5,2.4c-0.1,0-0.2,0.1-0.2,0.2c-1.4,0-2.8,0-4.2-0.1
		c-1.3-0.1-2.7-0.1-4-0.2c-2.1-0.2-4.2-0.4-6.3-0.6c0,0-0.1,0-0.1,0c0.1,0,0.2-0.1,0.3-0.1c1.3-0.3,2.7-0.7,4-1c1-0.3,2-0.5,2.9-0.8
		c0.1,0,0.2-0.2,0.4-0.3c0.4,0,0.8,0,1.2,0.1c1,0,1.9,0.1,2.9,0.1c1,0,2,0.1,3,0.1C990.3,273.3,992.2,273.3,994.2,273.2z"/>
	<path class="st11" d="M981.2,273.1c-0.1,0.1-0.2,0.3-0.4,0.3c-1,0.3-2,0.6-2.9,0.8c-1.3,0.4-2.7,0.7-4,1c-0.1,0-0.2,0.1-0.3,0.1
		c-0.8-0.1-1.6-0.2-2.4-0.3c-1.6-0.2-3.2-0.4-4.9-0.7c-1.8-0.3-3.5-0.7-5.3-1c-0.8-0.2-1.6-0.4-2.3-0.5c0.1,0,0.1-0.1,0.2-0.1
		c0.2,0,0.4,0,0.6,0c0.9,0,1.8,0,2.7-0.1c1.5-0.1,3-0.3,4.5-0.4c0.7-0.1,1.4-0.2,2.1-0.3c0.1,0,0.2-0.1,0.3-0.1
		c0.6,0.1,1.1,0.1,1.7,0.2c0.9,0.1,1.8,0.2,2.6,0.3c0.7,0.1,1.3,0.1,2,0.2c0.8,0.1,1.7,0.2,2.5,0.2c0.7,0.1,1.4,0.1,2.1,0.1
		C980.6,273,980.9,273,981.2,273.1z"/>
	<path class="st12" d="M918.9,246.2c-0.3-0.3-0.6-0.5-0.8-0.8c-0.6-0.7-1.1-1.3-1.7-2c-0.8-1-1.5-2-2.2-3c-0.1-0.2-0.3-0.4-0.4-0.6
		c-0.1-0.1-0.2-0.1-0.2-0.1c-0.1-0.7-0.2-1.3-0.3-2c-0.2-2.8,0.1-5.5,0.9-8.2c0.1-0.3,0.2-0.6,0.3-0.9c0.1,0.1,0.2,0.1,0.3,0.2
		c0.5,1.1,1,2.1,1.5,3.2c0.1,0.1,0.2,0.2,0.3,0.3c-0.1,0.7-0.2,1.4-0.2,2.1c0,1.2-0.1,2.4,0,3.6c0.1,1.2,0.4,2.4,0.7,3.6
		c0.2,0.9,0.6,1.8,0.9,2.6C918.1,244.8,918.5,245.5,918.9,246.2z"/>
	<path class="st13" d="M916.4,232.2c-0.1-0.1-0.3-0.1-0.3-0.3c-0.5-1.1-1-2.1-1.5-3.2c0-0.1-0.2-0.1-0.3-0.2c0.3-0.7,0.4-1.3,0.8-2
		c0.6-1.2,1.3-2.5,2-3.7c0,0,0.1-0.1,0.1-0.1c0.1,0.1,0.2,0.3,0.2,0.4c0.3,0.9,0.6,1.7,0.9,2.6c0.1,0.2,0.1,0.2,0.3,0.2
		c-0.3,0.5-0.5,1.1-0.8,1.6C917.2,229,916.7,230.6,916.4,232.2z"/>
	<path class="st14" d="M1015.6,197.5c1.2,0.2,2.3,0.4,3.5,0.7c0.8,0.2,1.6,0.4,2.4,0.6c0,0.1-0.1,0.2,0,0.3c0.1,0.9,0.3,1.9,0.5,2.8
		c-1.1-0.3-2.3-0.5-3.4-0.8c-0.8-0.2-1.6-0.3-2.4-0.5c-0.1-0.5-0.1-1-0.2-1.5C1015.8,198.6,1015.7,198,1015.6,197.5z"/>
	<path class="st15" d="M918.7,225.9c-0.2,0-0.3-0.1-0.3-0.2c-0.3-0.9-0.6-1.7-0.9-2.6c-0.1-0.1-0.2-0.3-0.2-0.4
		c0.5-0.7,0.9-1.4,1.4-2.1c0.6-0.8,1.3-1.6,2-2.4c0.1-0.1,0.2-0.2,0.2-0.2c0.1,0.1,0.2,0.2,0.2,0.3c0.2,0.6,0.3,1.3,0.5,1.9
		c0.1,0.3,0.2,0.6,0.4,0.9c-0.2,0.2-0.3,0.5-0.5,0.7C920.4,223.1,919.5,224.5,918.7,225.9z"/>
	<path class="st16" d="M1015.6,197.5c0.1,0.5,0.2,1.1,0.3,1.6c0.1,0.5,0.1,1,0.2,1.5c-0.2,0-0.3-0.1-0.5-0.1
		c-0.8-0.1-1.5-0.3-2.3-0.4c-0.9-0.1-1.7-0.3-2.6-0.4c0-0.1,0.1-0.2,0-0.3c-0.1-0.4-0.2-0.8-0.2-1.2c-0.1-0.5-0.2-1-0.3-1.5
		c0.9,0.1,1.9,0.3,2.8,0.4C1013.9,197.2,1014.8,197.3,1015.6,197.5z"/>
	<path class="st17" d="M1021.9,201.8c-0.2-0.9-0.3-1.9-0.5-2.8c0-0.1,0-0.2,0-0.3c1.7,0.4,3.4,0.9,5.1,1.3c0.1,1,0.2,2.1,0.4,3.1
		c-0.4-0.1-0.8-0.2-1.2-0.3C1024.5,202.5,1023.2,202.2,1021.9,201.8z"/>
	<path class="st18" d="M992.6,195.2c0.9,0,1.8,0,2.8,0.1c0.6,0,1.3,0.1,1.9,0.1c0,0.1,0,0.3,0.1,0.4c0.2,0.6,0.4,1.2,0.6,1.7
		c0.1,0.3,0.1,0.6,0.2,0.9c-0.4,0-0.8,0-1.1-0.1c-1.1,0-2.2-0.1-3.3-0.1c-0.1-0.4-0.2-0.8-0.4-1.2
		C993.1,196.5,992.8,195.9,992.6,195.2z"/>
	<path class="st19" d="M998.1,198.4c-0.1-0.3-0.1-0.6-0.2-0.9c-0.2-0.6-0.4-1.2-0.6-1.7c0-0.1-0.1-0.3-0.1-0.4c1,0.1,2,0.1,3,0.2
		c0.5,0,1,0.1,1.5,0.1c0.2,0.7,0.4,1.4,0.6,2.1c0.1,0.3,0.3,0.6,0.1,1c-0.3,0-0.7,0-1-0.1C1000.3,198.6,999.2,198.5,998.1,198.4z"/>
	<path class="st20" d="M1002.4,198.7c0.1-0.3,0-0.7-0.1-1c-0.2-0.7-0.4-1.4-0.6-2.1c1.5,0.1,2.9,0.3,4.4,0.4c0,0.3,0.1,0.5,0.1,0.8
		c0.2,0.7,0.3,1.5,0.5,2.2c0,0-0.1,0.1-0.1,0.1c-0.6-0.1-1.2-0.1-1.8-0.2C1004,198.9,1003.2,198.8,1002.4,198.7z"/>
	<path class="st21" d="M1027,203.2c-0.1-1-0.2-2.1-0.4-3.1c1.4,0.4,2.8,0.9,4.2,1.3c0.1,1.1,0.2,2.1,0.4,3.2c-1.1-0.3-2.2-0.7-3.2-1
		C1027.6,203.4,1027.3,203.3,1027,203.2z"/>
	<path class="st22" d="M1006.7,199.1c-0.2-0.7-0.3-1.5-0.5-2.2c-0.1-0.3-0.1-0.5-0.1-0.8c1.3,0.2,2.7,0.3,4,0.5c0,0,0.1,0,0.1,0
		c0.1,0.5,0.2,1,0.3,1.5c0.1,0.4,0.2,0.8,0.2,1.2c0,0.1,0,0.2,0,0.3c-0.7-0.1-1.4-0.2-2.1-0.3C1008,199.3,1007.4,199.2,1006.7,199.1
		z"/>
	<path class="st23" d="M921.9,221.1c-0.1-0.3-0.3-0.6-0.4-0.9c-0.2-0.6-0.3-1.3-0.5-1.9c0-0.1-0.1-0.2-0.2-0.3c1-1,2.1-2,3.1-3
		c0.1,0.1,0.2,0.2,0.2,0.3c0.2,0.8,0.3,1.6,0.5,2.4c0,0.1,0.2,0.2,0.2,0.3c-0.1,0.1-0.2,0.3-0.4,0.4
		C923.6,219.3,922.8,220.2,921.9,221.1z"/>
	<path class="st24" d="M992.6,195.2c0.2,0.6,0.5,1.2,0.7,1.8c0.1,0.4,0.2,0.8,0.4,1.2c-1.3,0-2.6,0-4,0c-0.2-0.6-0.4-1.2-0.7-1.8
		c-0.2-0.4-0.3-0.8-0.5-1.2C989.9,195.2,991.3,195.2,992.6,195.2z"/>
	<path class="st25" d="M924.9,218c-0.1-0.1-0.2-0.2-0.2-0.3c-0.2-0.8-0.3-1.6-0.5-2.4c0-0.1-0.1-0.2-0.2-0.3
		c1.1-0.9,2.2-1.8,3.3-2.7c0.1,0.5,0.2,1,0.3,1.5c0.1,0.4,0.1,0.9,0.2,1.3c0,0.1,0.1,0.2,0.2,0.3c0,0,0,0.1-0.1,0.1
		C926.9,216.3,925.9,217.2,924.9,218z"/>
	<path class="st26" d="M1031.2,204.5c-0.1-1.1-0.2-2.1-0.4-3.2c1.1,0.4,2.1,0.7,3.2,1.1c0,0.2-0.1,0.4-0.1,0.6
		c0.1,0.8,0.1,1.7,0.2,2.5C1033.2,205.2,1032.2,204.9,1031.2,204.5z"/>
	<path class="st27" d="M1031.2,204.5c1,0.4,2,0.7,3,1.1c1.7,0.7,3.5,1.4,5.2,2.2c1.7,0.8,3.4,1.6,5.1,2.5c1.7,0.9,3.3,1.9,4.9,3
		c1.6,1.1,3.1,2.3,4.6,3.5c1,0.8,1.9,1.7,2.8,2.7c1.9,2,3.6,4.3,4.9,6.8c1,1.9,1.7,3.9,2.1,6c0.3,1.5,0.4,3,0.3,4.5
		c-0.1,2.5-0.7,5-1.8,7.3c-1.1,2.5-2.6,4.8-4.4,6.8c-1.8,2-3.7,3.8-5.8,5.4c-2.3,1.8-4.8,3.4-7.4,4.8c-3.6,2-7.4,3.7-11.3,5.1
		c-3.9,1.4-7.8,2.6-11.8,3.5c-2.9,0.6-5.8,1.2-8.6,1.7c-1.6,0.3-3.2,0.5-4.8,0.7c-1.2,0.2-2.4,0.3-3.6,0.4c-1.5,0.1-3,0.3-4.5,0.4
		c-1.1,0.1-2.1,0.1-3.2,0.2c-1,0-1.9,0.1-2.9,0.1c-1.9,0-3.8,0-5.8,0c-1,0-2,0-3-0.1c-1,0-1.9-0.1-2.9-0.1c-0.4,0-0.8,0-1.2-0.1
		c-0.3,0-0.7-0.1-1-0.1c-0.7-0.1-1.4-0.1-2.1-0.1c-0.8-0.1-1.7-0.2-2.5-0.2c-0.7-0.1-1.3-0.1-2-0.2c-0.9-0.1-1.8-0.2-2.6-0.3
		c-0.6-0.1-1.1-0.1-1.7-0.2c-0.5-0.1-1.1-0.2-1.6-0.3c-1.5-0.3-3-0.5-4.4-0.8c-2.2-0.5-4.5-1-6.7-1.5c-0.7-0.2-1.4-0.4-2.1-0.6
		c-0.9-0.3-1.7-0.5-2.6-0.8c-1.5-0.5-3-1-4.6-1.5c-1.3-0.5-2.5-0.9-3.8-1.5c-1.4-0.6-2.7-1.2-4-1.8c-1.4-0.7-2.9-1.4-4.3-2.2
		c-1.2-0.7-2.4-1.4-3.5-2.2c-0.7-0.4-1.3-0.9-2-1.3c-1-0.7-2-1.5-2.9-2.3c-1.1-0.9-2.1-1.9-3.1-2.9c-1.2-1.2-2.3-2.5-3.3-4
		c-0.3-0.4-0.6-0.8-0.8-1.3c-0.2-0.3-0.4-0.5-0.6-0.8c-0.3-0.7-0.7-1.4-1-2.2c-0.3-0.9-0.7-1.7-0.9-2.6c-0.3-1.2-0.6-2.4-0.7-3.6
		c-0.1-1.2-0.1-2.4,0-3.6c0-0.7,0.2-1.4,0.2-2.1c0.3-1.6,0.8-3.2,1.5-4.6c0.2-0.5,0.5-1.1,0.8-1.6c0.8-1.5,1.7-2.8,2.8-4.1
		c0.2-0.2,0.3-0.4,0.5-0.7c0.9-0.9,1.7-1.8,2.6-2.7c0.1-0.1,0.2-0.3,0.4-0.4c1-0.8,2-1.7,3-2.5c0,0,0,0,0.1-0.1
		c1.8-1.3,3.6-2.6,5.5-3.7c1.7-1,3.4-1.9,5.1-2.8c2.6-1.3,5.2-2.4,7.9-3.4c4-1.5,8-2.7,12.1-3.7c2.7-0.6,5.4-1.1,8.2-1.7
		c1.6-0.3,3.3-0.5,5-0.7c1.3-0.2,2.6-0.3,4-0.5c1-0.1,2.1-0.2,3.1-0.3c1.4-0.1,2.7-0.2,4.1-0.3c1-0.1,2-0.1,3.1-0.1
		c1.3,0,2.5-0.1,3.8-0.1c1.3,0,2.6,0,4,0c1.1,0,2.2,0.1,3.3,0.1c0.4,0,0.8,0,1.1,0.1c1.1,0.1,2.2,0.2,3.2,0.2c0.3,0,0.7,0,1,0.1
		c0.8,0.1,1.6,0.2,2.5,0.2c0.6,0.1,1.2,0.1,1.8,0.2c0,0,0.1,0,0.1-0.1c0.6,0.1,1.3,0.2,1.9,0.3c0.7,0.1,1.4,0.2,2.1,0.3
		c0.9,0.1,1.7,0.3,2.6,0.4c0.8,0.1,1.5,0.3,2.3,0.4c0.2,0,0.3,0.1,0.5,0.1c0.8,0.2,1.6,0.3,2.4,0.5c1.1,0.2,2.3,0.5,3.4,0.8
		c1.3,0.3,2.5,0.7,3.8,1c0.4,0.1,0.8,0.2,1.2,0.3c0.3,0.1,0.7,0.2,1,0.3C1029,203.8,1030.1,204.2,1031.2,204.5z M974.8,240
		c0,0.1,0,0.1,0,0.1c-0.5,2.4-0.9,4.7-1.4,7.1c-0.2,1.2,0.5,2.1,1.8,2.1c2.9,0,5.7,0,8.6,0c0.9,0,1.5-0.5,1.7-1.4
		c0-0.2,0.1-0.3,0.1-0.5c0.7-3.4,1.3-6.7,2-10.1c0.7-3.7,1.4-7.4,2.2-11.2c0-0.2,0.1-0.2,0.3-0.2c0.7,0,1.5,0,2.2,0
		c1.5,0,2.9,0,4.4,0.1c0.5,0,1.1,0.2,1.6,0.3c0.3,0.1,0.5,0.3,0.5,0.6c0,0.6,0,1.3-0.1,1.9c-0.3,1.7-0.6,3.3-0.9,4.9
		c-0.8,4.2-1.6,8.5-2.5,12.7c-0.1,0.4-0.2,0.8-0.2,1.2c0.1,1,0.8,1.6,1.7,1.6c2.8,0,5.6,0,8.4,0c0.4,0,0.9-0.1,1.3-0.1
		c0,0,0,0,0,0.1c-0.6,2.9-1.1,5.8-1.7,8.7c-0.2,1.2,0.5,2.2,1.7,2.2c2.9,0,5.8,0,8.7,0c0.9,0,1.5-0.5,1.7-1.4c0.6-3,1.2-6.1,1.8-9.1
		c0-0.2,0.1-0.3,0.4-0.3c1.3,0,2.5,0,3.8,0c2.2,0,4.5,0,6.7-0.2c1.6-0.2,3.3-0.5,4.8-1.1c3.9-1.4,6.8-4,9.1-7.4
		c1.6-2.3,2.5-4.9,3-7.6c0.4-2.1,0.5-4.2,0.1-6.3c-0.7-4-2.8-7-6.5-8.8c-2.5-1.2-5.2-1.7-7.9-1.7c-5.9,0-11.8,0-17.7,0
		c-0.9,0-1.5,0.5-1.7,1.4c-0.4,2-0.8,3.9-1.1,5.9c-0.1,0.4-0.2,0.8-0.2,1.2c-0.2-1.5-0.6-3-1.5-4.2c-1.1-1.6-2.6-2.5-4.4-3.1
		c-2.3-0.8-4.8-1.1-7.2-1.1c-2.1,0-4.1,0-6.2,0c-0.1,0-0.2,0-0.4,0c0.1-0.4,0.1-0.8,0.2-1.2c0.5-2.5,1-5,1.5-7.5
		c0.2-1.2-0.5-2.1-1.7-2.1c-2.8,0-5.7,0-8.5,0c-1,0-1.6,0.5-1.8,1.5c-0.5,2.4-0.9,4.8-1.4,7.2c-0.6,3-1.2,6-1.8,9.1
		c-0.2,1.1-0.4,2.2-0.7,3.3c0-0.2-0.1-0.3-0.1-0.4c-0.7-3.2-2.4-5.7-5.2-7.5c-2.5-1.6-5.2-2.2-8.1-2.4c-1.3-0.1-2.5-0.1-3.8-0.1
		c-5,0-10,0-15,0c-0.9,0-1.6,0.5-1.7,1.3c-0.2,1-0.4,1.9-0.6,2.9c-0.7,3.8-1.5,7.6-2.2,11.3c-0.5,2.7-1.1,5.4-1.6,8.2
		c-0.6,3.1-1.2,6.3-1.8,9.4c-0.6,2.9-1.1,5.8-1.7,8.7c-0.2,1.2,0.5,2.1,1.7,2.1c2.9,0,5.8,0,8.7,0c0.9,0,1.6-0.6,1.7-1.4
		c0.3-1.7,0.7-3.5,1-5.2c0.3-1.4,0.5-2.8,0.8-4.2c0.1,0,0.3,0,0.4,0c3.3,0,6.6,0.1,9.8-0.2c1.5-0.1,3-0.4,4.4-0.8
		c3.8-1.2,6.7-3.5,9.2-6.5C974,241.2,974.4,240.6,974.8,240z"/>
	<path class="st28" d="M974.8,240c-0.4,0.6-0.8,1.2-1.3,1.8c-2.4,3.1-5.4,5.4-9.2,6.5c-1.4,0.4-2.9,0.7-4.4,0.8
		c-3.3,0.3-6.6,0.1-9.8,0.2c-0.1,0-0.2,0-0.4,0c-0.3,1.4-0.6,2.8-0.8,4.2c-0.3,1.7-0.7,3.5-1,5.2c-0.2,0.8-0.8,1.4-1.7,1.4
		c-2.9,0-5.8,0-8.7,0c-1.2,0-2-0.9-1.7-2.1c0.6-2.9,1.1-5.8,1.7-8.7c0.6-3.1,1.2-6.3,1.8-9.4c0.5-2.7,1.1-5.4,1.6-8.2
		c0.7-3.8,1.5-7.6,2.2-11.3c0.2-1,0.4-1.9,0.6-2.9c0.2-0.8,0.9-1.3,1.7-1.3c5,0,10,0,15,0c1.3,0,2.5,0,3.8,0.1
		c2.9,0.2,5.6,0.8,8.1,2.4c2.8,1.8,4.5,4.3,5.2,7.5c0,0.1,0,0.2,0.1,0.4c0.2-1.2,0.4-2.3,0.7-3.3c0.6-3,1.2-6,1.8-9.1
		c0.5-2.4,0.9-4.8,1.4-7.2c0.2-1,0.8-1.5,1.8-1.5c2.8,0,5.7,0,8.5,0c1.2,0,2,0.9,1.7,2.1c-0.5,2.5-1,5-1.5,7.5
		c-0.1,0.4-0.1,0.8-0.2,1.2c0.1,0,0.3,0,0.4,0c2.1,0,4.1,0,6.2,0c2.4,0,4.9,0.3,7.2,1.1c1.8,0.6,3.3,1.6,4.4,3.1
		c0.9,1.3,1.3,2.7,1.5,4.2c0.1-0.4,0.2-0.8,0.2-1.2c0.4-2,0.8-3.9,1.1-5.9c0.2-0.9,0.8-1.4,1.7-1.4c5.9,0,11.8,0,17.7,0
		c2.8,0,5.4,0.5,7.9,1.7c3.6,1.8,5.8,4.8,6.5,8.8c0.4,2.1,0.2,4.2-0.1,6.3c-0.5,2.7-1.4,5.3-3,7.6c-2.3,3.4-5.2,6-9.1,7.4
		c-1.6,0.6-3.2,0.9-4.8,1.1c-2.2,0.3-4.4,0.2-6.7,0.2c-1.3,0-2.5,0-3.8,0c-0.2,0-0.3,0.1-0.4,0.3c-0.6,3-1.2,6.1-1.8,9.1
		c-0.2,0.9-0.8,1.4-1.7,1.4c-2.9,0-5.8,0-8.7,0c-1.3,0-2-1-1.7-2.2c0.6-2.9,1.1-5.8,1.7-8.7c0,0,0-0.1,0-0.1c-0.5,0-0.9,0.1-1.3,0.1
		c-2.8,0-5.6,0-8.4,0c-1,0-1.7-0.6-1.7-1.6c0-0.4,0.1-0.8,0.2-1.2c0.8-4.2,1.6-8.5,2.5-12.7c0.3-1.6,0.7-3.3,0.9-4.9
		c0.1-0.6,0.1-1.3,0.1-1.9c0-0.3-0.2-0.5-0.5-0.6c-0.5-0.1-1.1-0.3-1.6-0.3c-1.5-0.1-2.9-0.1-4.4-0.1c-0.7,0-1.5,0-2.2,0
		c-0.2,0-0.3,0.1-0.3,0.2c-0.7,3.7-1.4,7.4-2.2,11.2c-0.7,3.4-1.3,6.7-2,10.1c0,0.2-0.1,0.3-0.1,0.5c-0.2,0.9-0.8,1.4-1.7,1.4
		c-2.9,0-5.7,0-8.6,0c-1.2,0-2-0.9-1.8-2.1c0.5-2.4,0.9-4.7,1.4-7.1C974.8,240.1,974.8,240,974.8,240z M948.3,247.7
		c0.4,0,0.8,0,1.2,0c3.4-0.1,6.8,0.1,10.2-0.2c1.6-0.2,3.2-0.4,4.7-1c4.3-1.6,7.4-4.6,9.6-8.7c1-1.9,1.5-4,1.8-6.1
		c0.2-1.6,0.3-3.3,0-4.9c-0.7-3.8-2.9-6.4-6.5-7.8c-2.1-0.8-4.3-1.1-6.5-1.1c-5.8,0-11.6,0-17.4,0c-0.2,0-0.2,0.1-0.3,0.2
		c-0.4,2.2-0.8,4.3-1.3,6.5c-0.6,2.8-1.1,5.7-1.7,8.5c-0.5,2.6-1,5.2-1.5,7.8s-1,5.2-1.5,7.8c-0.5,2.6-1,5.2-1.5,7.8
		c-0.1,0.6-0.2,1.3-0.4,2c0.4,0,0.7,0,1.1,0c2.5,0,5,0,7.5,0c0.2,0,0.3,0,0.3-0.2c0.5-2.7,1-5.3,1.5-8
		C948,249.4,948.2,248.5,948.3,247.7z M1017.4,247.7c0.1,0,0.3,0,0.4,0c3.5,0,6.9-0.1,10.4-0.1c1.6,0,3.1-0.3,4.6-0.8
		c2.4-0.7,4.4-1.9,6.3-3.6c2.1-1.9,3.7-4.1,4.7-6.8c0.7-1.8,1.1-3.7,1.3-5.6c0.1-1.5,0.1-3-0.2-4.5c-0.9-3.7-3.2-6.1-6.7-7.4
		c-2.1-0.8-4.3-1-6.5-1c-5.7,0-11.4,0-17.1,0c-0.1,0-0.1,0-0.2,0c-2.6,13.5-5.3,27.1-7.9,40.6c3,0,5.9,0,8.9,0
		C1016,254.8,1016.7,251.3,1017.4,247.7z M989.6,217.8c0.7-3.6,1.4-7.2,2.1-10.8c-2.9,0-5.8,0-8.8,0c-2.6,13.5-5.3,27.1-7.9,40.6
		c2.9,0,5.9,0,8.8,0c1.5-7.8,3-15.5,4.5-23.3c0.1,0,0.1,0,0.2,0c2.3,0,4.6,0,6.9,0c0.8,0,1.7,0.1,2.5,0.2c1.7,0.3,2.4,1.2,2.4,2.9
		c0,0.9-0.1,1.7-0.3,2.6c-0.5,2.6-1,5.2-1.5,7.8c-0.5,2.5-1,5-1.5,7.5c-0.1,0.7-0.3,1.5-0.4,2.2c3,0,5.9,0,8.9,0
		c0.2-0.9,0.3-1.7,0.5-2.5c0.5-2.6,1-5.2,1.5-7.8c0.5-2.5,1-5,1.5-7.5c0.3-1.7,0.7-3.5,0.5-5.2c-0.1-1.1-0.4-2.2-1.1-3.2
		c-0.9-1.3-2.2-2.1-3.7-2.6c-2.1-0.7-4.4-0.9-6.6-1c-2.7,0-5.4,0-8.2,0C989.9,217.8,989.8,217.8,989.6,217.8z"/>
	<path class="st29" d="M948.3,247.7c-0.2,0.9-0.3,1.7-0.5,2.6c-0.5,2.7-1,5.3-1.5,8c0,0.2-0.2,0.2-0.3,0.2c-2.5,0-5,0-7.5,0
		c-0.3,0-0.7,0-1.1,0c0.1-0.7,0.2-1.3,0.4-2c0.5-2.6,1-5.2,1.5-7.8c0.5-2.6,1-5.2,1.5-7.8s1-5.2,1.5-7.8c0.6-2.8,1.1-5.7,1.7-8.5
		c0.4-2.2,0.8-4.3,1.3-6.5c0-0.2,0.1-0.2,0.3-0.2c5.8,0,11.6,0,17.4,0c2.2,0,4.4,0.3,6.5,1.1c3.6,1.4,5.8,4,6.5,7.8
		c0.3,1.6,0.2,3.3,0,4.9c-0.3,2.1-0.8,4.2-1.8,6.1c-2.1,4.1-5.2,7.1-9.6,8.7c-1.5,0.6-3.1,0.8-4.7,1c-3.4,0.3-6.8,0.1-10.2,0.2
		C949.1,247.7,948.8,247.7,948.3,247.7z M949.6,241.3c0.1,0,0.2,0,0.3,0c1.6,0,3.2,0,4.9,0c1.7,0,3.5-0.1,5.2-0.6
		c1.9-0.5,3.6-1.5,4.7-3.3c0.7-1.1,1.2-2.3,1.5-3.5c0.5-1.8,0.8-3.6,0.5-5.5c-0.2-1.6-1-2.7-2.5-3.3c-1.4-0.6-3-0.8-4.5-0.8
		c-2.2,0-4.4,0-6.5,0c-0.1,0-0.2,0-0.3,0C951.8,229.9,950.7,235.6,949.6,241.3z"/>
	<path class="st29" d="M1017.4,247.7c-0.7,3.6-1.4,7.2-2.1,10.8c-2.9,0-5.9,0-8.9,0c2.6-13.5,5.3-27.1,7.9-40.6c0.1,0,0.1,0,0.2,0
		c5.7,0,11.4,0,17.1,0c2.2,0,4.4,0.3,6.5,1c3.5,1.3,5.8,3.7,6.7,7.4c0.3,1.5,0.4,3,0.2,4.5c-0.2,1.9-0.6,3.8-1.3,5.6
		c-1,2.6-2.6,4.9-4.7,6.8c-1.8,1.7-3.9,2.9-6.3,3.6c-1.5,0.4-3,0.7-4.6,0.8c-3.5,0.1-6.9,0.1-10.4,0.1
		C1017.7,247.7,1017.5,247.7,1017.4,247.7z M1018.7,241.2c2.1,0,4.2,0,6.3,0c1.3,0,2.6-0.2,3.8-0.5c2.2-0.6,4-1.7,5.2-3.7
		c1.5-2.6,2.1-5.5,1.8-8.5c-0.2-1.7-1.1-2.9-2.7-3.6c-1.4-0.5-2.9-0.7-4.3-0.7c-2.2,0-4.4,0-6.5,0c-0.1,0-0.2,0-0.3,0
		C1020.9,229.9,1019.8,235.6,1018.7,241.2z"/>
	<path class="st29" d="M989.6,217.8c0.1,0,0.3,0,0.4,0c2.7,0,5.4,0,8.2,0c2.2,0,4.5,0.2,6.6,1c1.5,0.5,2.8,1.3,3.7,2.6
		c0.6,1,1,2,1.1,3.2c0.2,1.8-0.1,3.5-0.5,5.2c-0.5,2.5-1,5-1.5,7.5c-0.5,2.6-1,5.2-1.5,7.8c-0.2,0.8-0.3,1.7-0.5,2.5
		c-3,0-5.9,0-8.9,0c0.1-0.7,0.3-1.5,0.4-2.2c0.5-2.5,1-5,1.5-7.5c0.5-2.6,1-5.2,1.5-7.8c0.2-0.9,0.3-1.7,0.3-2.6
		c0-1.7-0.7-2.6-2.4-2.9c-0.8-0.2-1.7-0.2-2.5-0.2c-2.3,0-4.6,0-6.9,0c-0.1,0-0.1,0-0.2,0c-1.5,7.8-3,15.5-4.5,23.3
		c-2.9,0-5.8,0-8.8,0c2.6-13.5,5.3-27.1,7.9-40.6c2.9,0,5.8,0,8.8,0C991,210.6,990.3,214.2,989.6,217.8z"/>
	<path class="st28" d="M949.6,241.3c1.1-5.7,2.2-11.3,3.3-17c0.1,0,0.2,0,0.3,0c2.2,0,4.4,0,6.5,0c1.5,0,3.1,0.2,4.5,0.8
		c1.5,0.6,2.3,1.8,2.5,3.3c0.3,1.9-0.1,3.7-0.5,5.5c-0.3,1.2-0.8,2.4-1.5,3.5c-1.1,1.7-2.7,2.7-4.7,3.3c-1.7,0.5-3.4,0.6-5.2,0.6
		c-1.6,0-3.2,0-4.9,0C949.8,241.3,949.7,241.3,949.6,241.3z M951.6,239.6c0.1,0,0.2,0,0.3,0c1.2,0,2.4,0,3.5,0
		c1.3,0,2.5-0.1,3.8-0.4c2.2-0.5,3.7-1.7,4.6-3.8c0.9-2,1.3-4.1,1.2-6.3c-0.1-1.3-0.6-2.1-1.9-2.5c-1.1-0.4-2.3-0.5-3.5-0.5
		c-1.7,0-3.4,0-5.1,0c-0.2,0-0.3,0.1-0.3,0.3c-0.5,2.6-1,5.2-1.5,7.9C952.3,235.9,952,237.7,951.6,239.6z"/>
	<path class="st28" d="M1018.7,241.2c1.1-5.7,2.2-11.3,3.3-17c0.1,0,0.2,0,0.3,0c2.2,0,4.4,0,6.5,0c1.5,0,2.9,0.2,4.3,0.7
		c1.6,0.6,2.5,1.8,2.7,3.6c0.3,3-0.4,5.8-1.8,8.5c-1.1,2-3,3.2-5.2,3.7c-1.3,0.3-2.5,0.5-3.8,0.5
		C1022.9,241.2,1020.8,241.2,1018.7,241.2z M1020.7,239.5c0.1,0,0.2,0,0.3,0c1.2,0,2.4,0,3.6,0c1.3,0,2.5-0.1,3.7-0.4
		c1.7-0.4,3.2-1.3,4.1-2.9c1.3-2.2,1.8-4.6,1.7-7.1c-0.1-1.7-0.7-2.4-2.3-2.8c-1.1-0.3-2.1-0.4-3.2-0.4c-1.6,0-3.3,0-4.9,0
		c-0.1,0-0.2,0-0.3,0C1022.5,230.5,1021.6,235,1020.7,239.5z"/>
	<path class="st27" d="M951.6,239.6c0.4-1.9,0.7-3.7,1.1-5.5c0.5-2.6,1-5.2,1.5-7.9c0-0.2,0.1-0.3,0.3-0.3c1.7,0,3.4,0,5.1,0
		c1.2,0,2.4,0.1,3.5,0.5c1.2,0.4,1.8,1.2,1.9,2.5c0.1,2.2-0.3,4.3-1.2,6.3c-0.9,2.1-2.5,3.3-4.6,3.8c-1.2,0.3-2.5,0.4-3.8,0.4
		c-1.2,0-2.4,0-3.5,0C951.8,239.6,951.8,239.6,951.6,239.6z"/>
	<path class="st27" d="M1020.7,239.5c0.9-4.6,1.8-9.1,2.6-13.6c0.1,0,0.2,0,0.3,0c1.6,0,3.3,0,4.9,0c1.1,0,2.2,0.1,3.2,0.4
		c1.6,0.4,2.3,1.1,2.3,2.8c0.1,2.5-0.4,4.9-1.7,7.1c-0.9,1.6-2.4,2.4-4.1,2.9c-1.2,0.3-2.5,0.4-3.7,0.4c-1.2,0-2.4,0-3.6,0
		C1020.9,239.6,1020.8,239.6,1020.7,239.5z"/>
</g>
<g>
	<path d="M500,616.7c-0.1,0-0.2,0-0.3,0c-0.3-0.2-0.7-0.5-1-0.7c-19.1-11-38.1-22-57.2-33c0-22.4,0-44.8,0-67.3
		c12.8-7.4,25.6-14.7,38.3-22.1c6.6-3.8,13.2-7.7,19.8-11.5c0.1,0,0.2,0,0.3,0c0.5,0.3,0.9,0.6,1.4,0.9
		c18.9,10.9,37.9,21.8,56.8,32.8c0,22.4,0,44.8,0,67.3c-11.7,6.7-23.4,13.5-35.1,20.2C515.4,607.7,507.7,612.2,500,616.7z
		 M550.2,549.5c0-9.1,0-18.3,0-27.4c0-1.3-0.4-2-1.5-2.6c-15.9-9.1-31.8-18.3-47.7-27.5c-1-0.6-1.6-0.5-2.6,0
		c-15.9,9.2-31.9,18.4-47.8,27.6c-0.9,0.5-1.3,1.1-1.3,2.2c0,18.4,0,36.9,0,55.3c0,1,0.3,1.6,1.2,2.1c16,9.2,32.1,18.5,48.1,27.8
		c0.9,0.5,1.5,0.5,2.3,0c16-9.3,32-18.5,48-27.7c0.9-0.5,1.3-1.1,1.3-2.2C550.2,567.9,550.2,558.7,550.2,549.5z"/>
	<path d="M470,585c6.8-11,11.3-22.8,15.5-35.1c1.2,2.8,2,5.5,3.3,7.9c1.8,3.5,3.7,7.1,6.1,10.2c5.1,6.6,11.3,6.9,17.3,1
		c2.1-2,3.7-4.5,5.6-6.8c0.3-0.4,0.6-0.8,0.9-1.2c1.1,1,2,2,3,2.8c3.1,2.5,6.7,2.7,10.2,0.6c2.8-1.6,4.8-4,6.1-6.9
		c0.7-1.5,1.4-2.9,2.3-4.2c1.6-2.2,3.9-3.2,6.8-3.5c0,0.6,0,1.1,0,1.6c0,7.4,0,14.8,0,22.3c0,1.1-0.4,1.6-1.2,2.1
		c-15,8.6-29.9,17.2-44.8,25.8c-0.7,0.4-1.2,0.7-2,0.2c-9.4-5.5-18.9-11-28.4-16.5C470.4,585.4,470.2,585.2,470,585z"/>
	<path d="M452.4,573.3c0-0.4,0-0.8,0-1.1c0-7.8-0.1-15.6,0.1-23.3c0-1.7,0.6-3.3,1.1-5c1.2-4,2.9-7.7,5.6-11
		c4.9-5.9,11.3-6.3,16.8-1c2.3,2.2,4,4.9,5.3,7.9c-5.9,1.4-9.6,5.6-13.1,9.9c-5.7,6.8-10.1,14.3-14.5,22c-0.3,0.6-0.6,1.1-1,1.7
		C452.6,573.4,452.5,573.4,452.4,573.3z"/>
	<path d="M466.1,582.8c-0.4-0.2-0.7-0.3-1-0.5c-2.9-1.8-5.9-3.7-9-5.6c0.7-1.5,1.3-3,2-4.4c4-8,8.6-15.6,14.6-22.2
		c1.8-2,3.9-3.6,6.1-5.2c1-0.8,2.4-1,3.8-1.2C477.7,557,474.2,570.8,466.1,582.8z"/>
	<path d="M487.3,546c2.8,1.7,5.2,3.3,7.8,4.6c4,2,8.2,3,12.6,1.5c1.5-0.5,2.8-1.3,4.3-2c1.4,2.5,2.9,5.1,4.4,7.7
		c0.1,0.2,0,0.7-0.1,1c-1.9,3.6-4.2,6.9-7.6,9.3c-4.2,3-7.5,2.6-10.9-1.4c-3.1-3.7-5.1-8-7-12.3C489.7,551.7,488.6,549,487.3,546z"
		/>
	<path d="M547.1,542.4c-2.4-0.9-4.6-2.1-7-2.6c-4.3-1-8.2,0.2-11.8,2.5c-3.8,2.4-6.5,5.8-8.8,9.6c-0.3,0.5-0.6,0.9-1,1.7
		c-1.2-2.2-2.3-4.1-3.3-6.1c-0.1-0.3,0-0.8,0.1-1.1c1.8-3.3,3.6-6.7,5.6-9.8c1.1-1.8,2.6-3.5,4.2-4.9c3.4-2.9,7.3-3.3,11.3-1.3
		c4.6,2.4,7.6,6.3,10.4,10.5C547.1,541.3,547,542,547.1,542.4z"/>
	<path d="M510.4,546.4c-3.1,2.8-6.5,3.4-10.2,2.4c-4.2-1.1-7.7-3.7-11.1-6.4c-0.2-0.2-0.4-0.9-0.2-1.1c1.5-2.8,2.8-5.7,4.6-8.3
		c2.3-3.1,5.1-3.2,7.9-0.5c1,0.9,1.9,2,2.6,3.1C506.2,539.1,508.3,542.7,510.4,546.4z"/>
	<path d="M544.9,546c-4.2,1.6-6.8,4.4-8.7,8c-0.7,1.3-1.3,2.7-2.1,3.9c-0.8,1.2-1.8,2.4-2.9,3.2c-3.3,2.6-6.4,2.2-9.2-1
		c-1.8-2.1-1.8-2.3-0.5-4.7c2.7-4.7,6.4-8.3,11.4-10.4c2.9-1.2,5.9-1.6,9-0.4C542.9,544.9,543.7,545.4,544.9,546z"/>
</g>
<g>
	<path class="st30" d="M702.8,543.9h-34.1l32.9,32.9l-32.9,32.9h34.1l32.9-32.9L702.8,543.9z"/>
	<path class="st30" d="M754.3,543.9h-34.1l32.9,32.9l-32.9,32.9h34.1l32.9-32.9L754.3,543.9z"/>
</g>
</svg>
