<?xml version="1.0" encoding="utf-8"?>
<!-- Generator: Adobe Illustrator 23.0.0, SVG Export Plug-In . SVG Version: 6.00 Build 0)  -->
<svg version="1.1" id="Laag_1" xmlns="http://www.w3.org/2000/svg" xmlns:xlink="http://www.w3.org/1999/xlink" x="0px" y="0px"
	 viewBox="0 0 552 562" style="enable-background:new 0 0 552 562;" xml:space="preserve">
<style type="text/css">
	.st0{fill:#D0D2D5;}
	.st1{fill:#F4F6F8;}
	.st2{fill:#333841;}
	.st3{fill:#EFEFEF;}
	.st4{fill:#EE6F5B;}
	.st5{fill:#F6E38B;}
	.st6{fill:#7BC7BE;}
	.st7{fill:#FFFFFF;}
	.st8{fill:#E94450;}
	.st9{fill:#EC6325;}
	.st10{fill:#9C5D90;}
	.st11{fill:#101011;}
</style>
<g>
	<path class="st0" d="M552,547c0,8.2-6.7,15-15,15H15c-8.2,0-15-6.7-15-15V15C0,6.8,6.8,0,15,0h522c8.3,0,15,6.8,15,15V547"/>
	<g>
		<rect x="81.4" y="122.6" class="st1" width="388.3" height="439.4"/>
		<g>
			<path class="st2" d="M469.7,124.3v-25c0-7.9-6.4-14.3-14.3-14.3H95.7c-7.9,0-14.3,6.4-14.3,14.3v25"/>
		</g>
		<g>
			<path class="st3" d="M469.7,482.4"/>
			<path class="st3" d="M469.7,119.4"/>
		</g>
		<g>
			<circle class="st4" cx="108.2" cy="103.6" r="3.8"/>
			<circle class="st5" cx="127.3" cy="103.6" r="3.8"/>
			<circle class="st6" cx="147.3" cy="103.6" r="3.8"/>
		</g>
		<g>
			<path class="st7" d="M445.9,528.8c0,8.2-6.8,15-15,15H120.2c-8.2,0-15-6.8-15-15V412.7c0-8.2,6.8-15,15-15h310.7
				c8.2,0,15,6.8,15,15L445.9,528.8L445.9,528.8z"/>
		</g>
	</g>
	<circle class="st8" cx="470" cy="85" r="53"/>
	<circle class="st9" cx="83" cy="263" r="53"/>
	<circle class="st10" cx="83" cy="392" r="53"/>
	<polygon class="st7" points="83.5,236.6 60.1,250.1 60.1,277.1 66.8,280.9 66.8,253.9 83.5,244.3 100.2,253.9 100.2,280.9 
		106.9,277.1 106.9,250.1 	"/>
	<polygon class="st7" points="86.8,280.9 83.5,282.9 80.2,280.9 80.2,253.9 73.5,257.8 73.5,284.8 83.5,290.6 93.5,284.8 
		93.5,257.8 86.8,253.9 	"/>
	<path class="st7" d="M104.8,387.2c-0.9-0.2-1.8,0.3-2.6,1.5c-0.7,0.9-1.1,1.9-1.3,3c-0.1,0.6-0.2,1.2-0.2,1.8
		c0,0.7,0.1,1.5,0.4,2.3c0.4,1,0.9,1.5,1.5,1.6s1.3-0.1,2-0.8c0.9-0.8,1.5-2,1.9-3.7c0.1-0.6,0.2-1.2,0.2-1.8c0-0.7-0.1-1.5-0.4-2.3
		C105.9,387.9,105.4,387.4,104.8,387.2z"/>
	<path class="st7" d="M108.3,377H58.7c-3.1,0-5.7,2.6-5.7,5.7v18.9c0,3.1,2.5,5.7,5.7,5.7h23.5l10.7,6l-2.4-6h17.8
		c3.1,0,5.7-2.5,5.7-5.7v-18.9C114,379.5,111.5,377,108.3,377z M78,402c0,0.6,0,1.2-0.3,1.6c-0.3,0.5-0.7,0.8-1.3,0.9
		c-0.6,0-1.3-0.2-2-0.9c-2.3-2.4-4.2-5.9-5.5-10.6c-1.6,3.2-2.8,5.6-3.6,7.2c-1.5,2.8-2.7,4.3-3.8,4.3c-0.7,0-1.2-0.5-1.7-1.7
		c-1.3-3.3-2.6-9.6-4.1-18.9c-0.1-0.6,0-1.2,0.4-1.7c0.3-0.5,0.9-0.7,1.6-0.8c1.3-0.1,2,0.5,2.2,1.8c0.8,5.2,1.6,9.6,2.5,13.2
		l5.5-10.4c0.5-0.9,1.1-1.4,1.9-1.5c1.1-0.1,1.8,0.6,2,2.1c0.6,3.3,1.4,6.1,2.4,8.5c0.6-6.3,1.7-10.9,3.3-13.7
		c0.4-0.7,0.9-1,1.6-1.1c0.6,0,1.1,0.1,1.6,0.5s0.7,0.8,0.8,1.4c0,0.4,0,0.8-0.2,1.2c-1,1.8-1.8,4.8-2.4,9
		C78.1,396.5,77.9,399.7,78,402z M93.3,398c-1.5,2.5-3.4,3.7-5.9,3.7c-0.4,0-0.9,0-1.3-0.1c-1.8-0.4-3.1-1.3-4-2.9
		c-0.8-1.4-1.2-3-1.2-4.9c0-2.6,0.6-4.9,1.9-7c1.5-2.5,3.5-3.7,5.9-3.7c0.4,0,0.9,0,1.3,0.1c1.7,0.4,3.1,1.3,4,2.9
		c0.8,1.3,1.2,3,1.2,4.9C95.3,393.6,94.6,395.9,93.3,398z M108.9,398c-1.5,2.5-3.4,3.7-5.9,3.7c-0.4,0-0.9,0-1.3-0.1
		c-1.8-0.4-3.1-1.3-4-2.9c-0.8-1.4-1.2-3-1.2-4.9c0-2.6,0.6-4.9,1.9-7c1.5-2.5,3.5-3.7,5.9-3.7c0.4,0,0.9,0,1.3,0.1
		c1.8,0.4,3.1,1.3,4,2.9c0.8,1.3,1.2,3,1.2,4.9C110.9,393.6,110.2,395.9,108.9,398z"/>
	<path class="st7" d="M89.2,387.2c-0.9-0.2-1.8,0.3-2.6,1.5c-0.7,0.9-1.1,1.9-1.3,3c-0.1,0.6-0.2,1.2-0.2,1.8c0,0.7,0.1,1.5,0.4,2.3
		c0.4,1,0.9,1.5,1.5,1.6s1.3-0.1,2-0.8c0.9-0.8,1.5-2,1.9-3.7c0.1-0.6,0.2-1.2,0.2-1.8c0-0.7-0.1-1.5-0.4-2.3
		C90.3,387.9,89.8,387.4,89.2,387.2z"/>
	<path class="st11" d="M137.1,521.8c0-29.3-23.7-53-53-53s-53,23.7-53,53c0,16,7.1,30.3,18.3,40h69.5
		C130,552.1,137.1,537.7,137.1,521.8z"/>
	<g>
		<path class="st7" d="M448.8,62.2c0.5,0.6,1,1.2,1.4,1.8c6.8,11.3,13.5,22.5,20.2,33.8c0.6,1.1,1.2,1.3,2.4,0.9
			c7.5-2.1,15.1-4.1,22.6-6.2c0.3-0.1,0.6-0.2,1-0.3c-2.6-3.7-5.1-7.3-7.7-10.8c-0.2-0.3-0.5-0.6-0.6-0.9c-0.6-1-0.3-1.8,0.9-2.1
			c3.8-0.9,7.6-1.9,11.5-2.7c0.6-0.1,1.5,0.4,1.9,0.9c3.1,3.7,6.1,7.6,9.1,11.4c0.3,0.3,0.6,0.6,0.9,0.9c0,0.5,0,0.9,0,1.4
			c-0.6,0.3-1.2,0.6-1.9,0.8c-3.2,0.9-6.4,1.8-9.8,2.7c0.3,0.5,0.6,0.9,0.9,1.3c2.7,3.8,5.4,7.6,8,11.3c1.1,1.5,0.9,2.1-0.9,2.8
			c-9,3.2-18,6.3-27,9.5c-1.2,0.4-1.9,0.1-2.5-0.9c-3.1-5.2-6.2-10.3-9.3-15.6c-2.3,0.6-4.6,1.2-6.9,1.9c-3.5,1-7.1,1.9-10.6,2.9
			c-1.2,0.4-1.9,0-2.4-1.1c-6.8-12.9-13.7-25.7-20.5-38.6c-0.9-1.8-0.6-2.4,1.4-2.7c5.1-0.7,10.2-1.4,15.3-2.1
			c0.3,0,0.6-0.2,0.8-0.3C447.7,62.2,448.3,62.2,448.8,62.2z M432.6,67c0.1,0.3,0.1,0.5,0.1,0.6c6.4,12,12.7,24,19.2,36
			c0.2,0.3,0.9,0.6,1.3,0.5c1.6-0.3,3.2-0.8,4.8-1.3c3.5-1,7-1.9,10.5-2.9c0-0.2,0-0.2,0-0.3c-6.8-11.4-13.6-22.7-20.4-34
			c-0.2-0.3-0.7-0.6-1.1-0.5C442.2,65.7,437.5,66.3,432.6,67z M472.7,101.5c3,5,5.9,9.8,8.8,14.6c8.6-3,17-6,25.6-9
			c-2.9-4.1-5.7-8.1-8.5-12c-0.2-0.3-1.1-0.4-1.5-0.3c-4.9,1.3-9.7,2.6-14.6,4C479.2,99.7,476,100.6,472.7,101.5z M508.9,88.9
			c-2.1-2.6-4.3-4.9-6-7.6c-1.7-2.6-3.5-3.3-6.3-2.2c-1.6,0.6-3.4,0.9-5.3,1.3c2.6,3.6,5,7.1,7.5,10.5c0.2,0.3,0.7,0.5,1,0.4
			C502.8,90.6,505.8,89.8,508.9,88.9z"/>
	</g>
	<g>
		<path class="st7" d="M68.7,503.5H47.8L68,523.6l-20.2,20.2h20.9l20.2-20.2L68.7,503.5z"/>
		<path class="st7" d="M100.2,503.5H79.4l20.2,20.2l-20.2,20.2h20.9l20.2-20.2L100.2,503.5z"/>
	</g>
</g>
</svg>
