<svg xmlns="http://www.w3.org/2000/svg" id="Layer_1" viewBox="0 0 45.09 50" width="45.09" height="50"><defs><style>.cls-1{fill:none}.cls-2{clip-path:url(#clip-path)}.cls-3{fill:#231f20}</style><clipPath id="clip-path" transform="translate(-30.16 -23.36)"><path d="M30.16 23.36h45.09v50H30.16z" class="cls-1"/></clipPath></defs><g class="cls-2"><path d="M72.19 48.39V38.2a1 1 0 0 0-.57-1Q62.4 32.13 53.2 27a.86.86 0 0 0-1 0Q43 32.16 33.73 37.27a.82.82 0 0 0-.52.83v20.54a.8.8 0 0 0 .46.8q9.33 5.13 18.6 10.32a.78.78 0 0 0 .89 0q9.26-5.16 18.53-10.29a.82.82 0 0 0 .51-.83V48.4m-19.42 25h-.12c-.13-.08-.25-.17-.39-.24l-22.11-12.3v-25L45 27.65c2.56-1.42 5.11-2.86 7.67-4.29h.12c.18.11.35.23.54.33l21.92 12.17v25L61.7 68.38l-8.93 5" class="cls-3" transform="translate(-30.16 -23.36)"/><path d="M41.18 61.6a62.25 62.25 0 0 0 6-13c.45 1 .79 2 1.29 3a25.57 25.57 0 0 0 2.35 3.8c2 2.46 4.38 2.57 6.68.38a30.26 30.26 0 0 0 2.15-2.51c.12-.14.22-.3.33-.45.41.37.76.75 1.17 1.06a3.4 3.4 0 0 0 3.93.23 5.59 5.59 0 0 0 2.37-2.56 9 9 0 0 1 .89-1.57 3.52 3.52 0 0 1 2.66-1.4v8.85a.8.8 0 0 1-.48.79q-8.7 4.78-17.36 9.6a.69.69 0 0 1-.79.06c-3.65-2-7.31-4.08-11-6.12a2 2 0 0 1-.22-.16m-6.78-4.34v-9.09a6.74 6.74 0 0 1 .44-1.85A11.74 11.74 0 0 1 37 42.24a4.13 4.13 0 0 1 6.48-.36 9.42 9.42 0 0 1 2.05 2.92c-2.27.53-3.69 2.09-5.07 3.68a53.82 53.82 0 0 0-5.59 8.16c-.12.21-.24.42-.37.63h-.13m5.32 3.5l-.37-.2-3.47-2.08c.26-.57.49-1.12.77-1.65a36.3 36.3 0 0 1 5.63-8.25 15.54 15.54 0 0 1 2.34-1.92 3.84 3.84 0 0 1 1.47-.46c-1.88 5-3.26 10.1-6.37 14.56" class="cls-3" transform="translate(-30.16 -23.36)"/><path d="M47.88 47.1c1.09.63 2 1.24 3 1.73a6.42 6.42 0 0 0 4.86.56 15.18 15.18 0 0 0 1.66-.75c.55.92 1.14 1.89 1.7 2.86a.43.43 0 0 1-.05.36 9.92 9.92 0 0 1-2.92 3.46A2.78 2.78 0 0 1 52 54.8a18.69 18.69 0 0 1-2.71-4.57c-.46-1-.89-2-1.37-3.13M71 45.77a24.69 24.69 0 0 0-2.7-1 6 6 0 0 0-4.56.95 10.8 10.8 0 0 0-3.42 3.57c-.11.17-.21.35-.38.63-.46-.8-.88-1.53-1.28-2.27a.49.49 0 0 1 .06-.4c.71-1.23 1.39-2.48 2.17-3.66a8.28 8.28 0 0 1 1.63-1.82 3.76 3.76 0 0 1 4.35-.47 11.09 11.09 0 0 1 4 3.9 1.5 1.5 0 0 1 .1.56" class="cls-3" transform="translate(-30.16 -23.36)"/><path d="M56.8 47.23a4.1 4.1 0 0 1-3.94.88 12.3 12.3 0 0 1-4.28-2.36.43.43 0 0 1-.09-.42 24.66 24.66 0 0 1 1.78-3.08c.87-1.17 1.95-1.18 3-.19a5.9 5.9 0 0 1 1 1.17c.85 1.31 1.66 2.66 2.49 4m13.38-.14a6 6 0 0 0-3.36 3 13.37 13.37 0 0 1-.8 1.43 5.52 5.52 0 0 1-1.11 1.2 2.36 2.36 0 0 1-3.54-.36c-.7-.78-.71-.86-.17-1.74a9 9 0 0 1 4.39-3.88 4.76 4.76 0 0 1 3.45-.17c.34.12.65.3 1.11.52" class="cls-3" transform="translate(-30.16 -23.36)"/></g></svg>