<svg xmlns="http://www.w3.org/2000/svg" id="Layer_1" viewBox="0 0 51.97 50.5" width="51.97" height="50.5"><defs><style>.cls-1{fill:#fff;stroke:#fff;stroke-miterlimit:10}.cls-2{fill:#212120}</style></defs><circle cx="27.21" cy="25.74" r="24.26" class="cls-1"/><path d="M49.81 24.36A25.41 25.41 0 0 0 41.62 74c1.29.24 1.77-.55 1.77-1.22v-4.33C36.15 70 34.63 65 34.63 65c-1.18-2.94-2.89-3.72-2.89-3.72-2.34-1.58.19-1.55.19-1.55a5.41 5.41 0 0 1 4 2.63c2.32 3.89 6.07 2.76 7.55 2.11a5.39 5.39 0 0 1 1.64-3.4c-5.75-.64-11.8-2.83-11.8-12.58A9.69 9.69 0 0 1 36 41.67a8.92 8.92 0 0 1 .22-6.74s2.17-.69 7.13 2.61a24.81 24.81 0 0 1 13 0c4.93-3.3 7.1-2.61 7.1-2.61a9.18 9.18 0 0 1 .26 6.74 9.76 9.76 0 0 1 2.65 6.83c0 9.78-6.05 11.93-11.82 12.56a6 6 0 0 1 1.75 4.71v7c0 .67.45 1.46 1.78 1.21a25.43 25.43 0 0 0 17.65-24.15 25.69 25.69 0 0 0-25.91-25.47z" class="cls-2" transform="translate(-23.9 -24.36)"/></svg>