<svg xmlns="http://www.w3.org/2000/svg" id="Layer_1" width="52.35" height="50" viewBox="0 0 52.35 50"><defs><style>.cls-1{fill:none}.cls-2{clip-path:url(#clip-path)}.cls-3{fill:#231f20}</style><clipPath id="clip-path" transform="translate(-17.91 -24.36)"><path d="M17.91 24.36h52.35v50H17.91z" class="cls-1"/></clipPath></defs><g class="cls-2"><path d="M67.52 53.93l-17.06 12.8.06-.08 15.16-20.08 2.07 6.59a.69.69 0 0 1-.23.77m-46.86 0a.69.69 0 0 1-.24-.77l2.07-6.58 15.23 20.15m-9.25-39.17l4.74 15.05h-9.46m27.83 2.55l-4.69 14.91-2.8 8.93-7.48-23.84m23.11-17.6l4.73 15.05H55m-7.54 24l6.44-20.55.28-.89h9.43L49 64.52M34 45.17l6.73 21.4-16.15-21.4m45.53 7.2l-2.75-8.71a1.09 1.09 0 0 0-.07-.24l-5.5-17.51a2.18 2.18 0 0 0-2.09-1.54 2.15 2.15 0 0 0-2.07 1.55l-5.25 16.69H35.8l-5.25-16.69a2.19 2.19 0 0 0-2.06-1.56 2.21 2.21 0 0 0-2.09 1.57l-5.52 17.53-2.79 8.87A3.3 3.3 0 0 0 19.2 56l24.16 18.12a1.19 1.19 0 0 0 1.46 0L69 56a3.32 3.32 0 0 0 1.14-3.63" class="cls-3" transform="translate(-17.91 -24.36)"/></g></svg>