<svg id="Layer_1" data-name="Layer 1" xmlns="http://www.w3.org/2000/svg" xmlns:xlink="http://www.w3.org/1999/xlink" viewBox="0 0 83.92 50"><defs><style>.cls-1{fill:none;}.cls-2{clip-path:url(#clip-path);}.cls-3{fill:#231f20;}</style><clipPath id="clip-path" transform="translate(-7.92 -25.36)"><rect class="cls-1" x="7.92" y="25.36" width="83.92" height="50"/></clipPath></defs><title>tailwind</title><g class="cls-2"><path class="cls-3" d="M28.9,50.36q-16.78,0-21,16.67,6.3-8.34,14.69-6.25c3.19.79,5.47,3.09,8,5.64,4.12,4.14,8.88,8.94,19.28,8.94q16.78,0,21-16.66Q64.58,67,56.18,65c-3.2-.8-5.48-3.09-8-5.64-4.12-4.15-8.88-9-19.28-9m21-25q-16.79,0-21,16.67,6.3-8.33,14.69-6.25c3.19.79,5.47,3.09,8,5.64,4.12,4.14,8.88,8.94,19.28,8.94q16.78,0,21-16.66Q85.56,42,77.15,40c-3.19-.79-5.47-3.09-8-5.64-4.11-4.15-8.87-9-19.27-9" transform="translate(-7.92 -25.36)"/></g></svg>